<svg width="35" height="20" viewBox="0 0 35 20" fill="none" xmlns="http://www.w3.org/2000/svg">
<g id="Bot">
<path id="Robot Part" d="M11.4513 0.414551H23.4622C27.6173 0.414551 30.9885 3.96749 30.9885 8.34656V11.6331C30.9885 16.0122 27.6173 19.5651 23.4622 19.5651H11.4513C7.29616 19.5651 3.92493 16.0122 3.92493 11.6331V8.34656C3.92493 3.96749 7.29616 0.414551 11.4513 0.414551Z" fill="url(#paint0_linear_3624_5071)"/>
<path id="Robot Part_2" d="M30.9886 9.99284C30.9886 8.75365 31.1562 7.57433 30.75 6.48779C27.2339 7.90957 15.3565 11.5493 4.1295 6.52371C3.73188 7.60127 3.92501 8.76862 3.92501 9.99284V11.7229C3.92501 16.0541 7.25648 19.5681 11.369 19.5681H21.9059C26.7028 19.7926 28.813 17.8141 30.111 15.3657C31.3578 13.016 31.0312 10.4119 31.0312 10.4119C31.0312 10.37 30.9886 10.0318 30.9886 9.99284Z" fill="url(#paint1_linear_3624_5071)"/>
<path id="Robot Part_3" d="M24.8936 6.1167H10.017C8.33553 6.1167 6.97241 7.55329 6.97241 9.32542V10.6574C6.97241 12.4295 8.33553 13.8661 10.017 13.8661H24.8936C26.5751 13.8661 27.9382 12.4295 27.9382 10.6574V9.32542C27.9382 7.55329 26.5751 6.1167 24.8936 6.1167Z" fill="#5F95DC"/>
<g id="Group 18">
<path id="Robot Part_4" d="M3.40519 13.9976C4.41691 13.9976 5.23707 12.2046 5.23707 9.99271C5.23707 7.78086 4.41691 5.98779 3.40519 5.98779C2.39346 5.98779 1.5733 7.78086 1.5733 9.99271C1.5733 12.2046 2.39346 13.9976 3.40519 13.9976Z" fill="url(#paint2_radial_3624_5071)"/>
<path id="Robot Part_5" d="M1.83463 12.6805C2.70204 12.6805 3.40522 11.4771 3.40522 9.99259C3.40522 8.5081 2.70204 7.30469 1.83463 7.30469C0.967215 7.30469 0.264038 8.5081 0.264038 9.99259C0.264038 11.4771 0.967215 12.6805 1.83463 12.6805Z" fill="url(#paint3_radial_3624_5071)"/>
</g>
<g id="Group 20">
<path id="Robot Part_6" d="M31.5949 13.9976C30.5832 13.9976 29.763 12.2046 29.763 9.99271C29.763 7.78086 30.5832 5.98779 31.5949 5.98779C32.6066 5.98779 33.4268 7.78086 33.4268 9.99271C33.4268 12.2046 32.6066 13.9976 31.5949 13.9976Z" fill="url(#paint4_radial_3624_5071)"/>
<path id="Robot Part_7" d="M33.1654 12.6805C32.298 12.6805 31.5948 11.4771 31.5948 9.99259C31.5948 8.5081 32.298 7.30469 33.1654 7.30469C34.0328 7.30469 34.736 8.5081 34.736 9.99259C34.736 11.4771 34.0328 12.6805 33.1654 12.6805Z" fill="url(#paint5_radial_3624_5071)"/>
</g>
<ellipse id="Robot Part_8" cx="13.0731" cy="9.99319" rx="1.42006" ry="1.49661" fill="url(#paint6_linear_3624_5071)"/>
<ellipse id="Robot Part_9" cx="21.7212" cy="9.99319" rx="1.42006" ry="1.49661" fill="url(#paint7_linear_3624_5071)"/>
</g>
<defs>
<linearGradient id="paint0_linear_3624_5071" x1="-3.26971" y1="-7.6379" x2="29.9165" y2="19.5564" gradientUnits="userSpaceOnUse">
<stop offset="0.26" stop-color="#D8E6F7"/>
<stop offset="1" stop-color="#5F95DC"/>
</linearGradient>
<linearGradient id="paint1_linear_3624_5071" x1="18.2819" y1="25.8988" x2="16.6641" y2="-2.75814" gradientUnits="userSpaceOnUse">
<stop offset="0.02" stop-color="white" stop-opacity="0.3"/>
<stop offset="0.97" stop-color="#5F95DC"/>
</linearGradient>
<radialGradient id="paint2_radial_3624_5071" cx="0" cy="0" r="1" gradientUnits="userSpaceOnUse" gradientTransform="translate(1.34325 9.76876) scale(3.68364 5.4739)">
<stop offset="0.21" stop-color="#5F95DC"/>
<stop offset="0.43" stop-color="#A0BBE0"/>
<stop offset="0.7" stop-color="#9DBDE7"/>
<stop offset="1" stop-color="#BBCBE0"/>
</radialGradient>
<radialGradient id="paint3_radial_3624_5071" cx="0" cy="0" r="1" gradientUnits="userSpaceOnUse" gradientTransform="translate(0.434446 9.89974) scale(2.85149 4.74819)">
<stop stop-color="#8FB1DF"/>
<stop offset="0.56" stop-color="#9DB5D6"/>
<stop offset="1" stop-color="#BCCCE2"/>
</radialGradient>
<radialGradient id="paint4_radial_3624_5071" cx="0" cy="0" r="1" gradientUnits="userSpaceOnUse" gradientTransform="translate(33.6568 9.76876) rotate(180) scale(3.68364 5.4739)">
<stop offset="0.21" stop-color="#5F95DC"/>
<stop offset="0.43" stop-color="#A0BBE0"/>
<stop offset="0.7" stop-color="#9DBDE7"/>
<stop offset="1" stop-color="#BBCBE0"/>
</radialGradient>
<radialGradient id="paint5_radial_3624_5071" cx="0" cy="0" r="1" gradientUnits="userSpaceOnUse" gradientTransform="translate(34.5656 9.89974) rotate(180) scale(2.85149 4.74819)">
<stop stop-color="#8FB1DF"/>
<stop offset="0.56" stop-color="#9DB5D6"/>
<stop offset="1" stop-color="#BCCCE2"/>
</radialGradient>
<linearGradient id="paint6_linear_3624_5071" x1="11.653" y1="9.99319" x2="14.4931" y2="9.99319" gradientUnits="userSpaceOnUse">
<stop stop-color="white"/>
<stop offset="1" stop-color="#DFE9ED"/>
</linearGradient>
<linearGradient id="paint7_linear_3624_5071" x1="20.3011" y1="-49.1317" x2="23.1413" y2="-49.1317" gradientUnits="userSpaceOnUse">
<stop stop-color="white"/>
<stop offset="1" stop-color="#DFE9ED"/>
</linearGradient>
</defs>
</svg>
