<?xml version="1.0" standalone="no"?>
<!DOCTYPE svg PUBLIC "-//W3C//DTD SVG 1.1//EN" "http://www.w3.org/Graphics/SVG/1.1/DTD/svg11.dtd">
<svg xmlns="http://www.w3.org/2000/svg" width="49" height="46" viewBox="0 0 49 46" fill="none">
<path d="M19.5987 21.6865C18.5395 22.6774 18.5178 24.298 19.5607 25.3044C20.6037 26.3108 22.2985 26.3314 23.3686 25.3405C23.4446 25.2683 23.5207 25.1857 23.5858 25.1134C24.5093 29.2835 24.9113 29.8409 25.4925 29.8409C25.5577 29.8409 25.6283 29.8306 25.7043 29.8203C26.5083 29.7119 26.5246 29.7119 27.1547 19.6273C27.1655 19.4208 27.1818 19.2092 27.1927 19.0028C27.2036 19.137 27.2199 19.2763 27.2307 19.4002C27.9966 26.9301 27.9966 26.9301 28.567 27.1365C29.3003 27.4101 29.6751 26.7804 30.4736 25.4024C30.6855 25.0463 31.0006 24.4941 31.2015 24.2257C32.1358 24.3238 34.6943 24.5148 35.4602 23.5703C35.6123 23.3897 35.8133 23.0903 36.0306 22.7445C36.3185 22.3162 36.916 21.413 37.2908 21.0672C37.4647 21.2685 37.6819 21.604 37.8558 21.8672C38.5837 22.9716 39.4039 24.2154 40.5392 24.2412H40.5772L46.4981 24.2515H48.4156V25.0567C48.4156 28.3029 45.6453 30.9247 42.2394 30.9247H32.565V40.1319C32.565 43.3679 29.7946 46 26.3779 46H22.0431C18.6373 46 15.8669 43.3679 15.8669 40.1319V30.9299H6.17621C2.77033 30.9299 0 28.3081 0 25.0618V20.9433C0 17.6971 2.77033 15.0753 6.17621 15.0753H15.8669V5.86806C15.8669 2.63211 18.6373 0 22.0431 0H26.3779C29.7946 0 32.565 2.63211 32.565 5.86806V15.0753H42.2448C45.6507 15.0753 48.4211 17.6971 48.4211 20.9433V22.8942H46.5035L40.6152 22.8839C40.6152 22.8839 40.6044 22.8839 40.5935 22.8839C40.2187 22.8839 39.393 21.6246 39.078 21.1446C38.6651 20.5253 38.3447 20.0402 37.9698 19.7821C37.7417 19.617 37.4429 19.5654 37.1605 19.617C36.3783 19.7615 35.7101 20.7059 34.8301 22.022C34.64 22.3213 34.4662 22.5845 34.3521 22.7187C33.999 22.9974 31.9729 22.9716 31.0983 22.8374C30.4085 22.7394 30.0662 23.3071 29.246 24.716C29.0722 23.2916 28.8549 21.1343 28.6756 19.2763C27.8934 11.5761 27.8934 11.5761 27.2036 11.4471C26.9972 11.411 26.7799 11.4574 26.6169 11.5813C26.2367 11.8548 26.2149 11.8703 25.7315 19.5447C25.5957 21.6504 25.4436 24.2051 25.2915 26.1198C25.1394 25.4953 24.9601 24.7212 24.7592 23.7612L24.732 23.6632C24.656 23.3019 24.4387 23.0903 24.1182 22.9716C24.0204 22.5174 23.7868 22.0839 23.412 21.7278C22.3691 20.7163 20.6688 20.7008 19.5987 21.6865Z" fill="url(#paint0_linear_3_359)"/>
<defs>
<linearGradient id="paint0_linear_3_359" x1="3.93018" y1="31.6366" x2="47.3366" y2="11.1672" gradientUnits="userSpaceOnUse">
<stop offset="4.1024e-07" stop-color="#68A4F4" stop-opacity="0.88"/>
<stop offset="0.0934" stop-color="#68A4F4" stop-opacity="0.92"/>
<stop offset="0.6815" stop-color="#68A4F4" stop-opacity="0.93"/>
<stop offset="1" stop-color="#68A4F4"/>
</linearGradient>
</defs>
</svg>